<svg width="92" height="92" viewBox="0 0 92 92" fill="none" xmlns="http://www.w3.org/2000/svg">
<g filter="url(#filter0_d_2231_5313)">
<rect x="30" y="30" width="32" height="32" rx="4" fill="#F4E98B"/>
<path d="M40.2244 48.0995C40.0878 48.1001 39.9538 48.0444 39.8381 47.9388C39.7224 47.8332 39.6297 47.682 39.5707 47.5028C39.5118 47.3237 39.489 47.1238 39.505 46.9266C39.521 46.7293 39.5752 46.5427 39.6613 46.3884L46.8086 35.6812C46.8622 35.5912 46.9353 35.5304 47.0158 35.5088C47.0963 35.4871 47.1795 35.5059 47.2517 35.562C47.3239 35.6182 47.3808 35.7084 47.4131 35.8178C47.4454 35.9272 47.4512 36.0493 47.4295 36.1641L46.0433 42.4834C46.0024 42.6425 45.9887 42.8136 46.0033 42.982C46.0179 43.1505 46.0604 43.3113 46.1271 43.4507C46.1939 43.59 46.2828 43.7037 46.3864 43.7821C46.49 43.8605 46.6052 43.9011 46.7219 43.9005H51.7756C51.9122 43.8999 52.0462 43.9556 52.1619 44.0612C52.2776 44.1668 52.3703 44.318 52.4293 44.4972C52.4883 44.6763 52.511 44.8762 52.495 45.0735C52.479 45.2707 52.4248 45.4573 52.3387 45.6116L45.1914 56.3188C45.1378 56.4088 45.0647 56.4696 44.9842 56.4912C44.9037 56.5129 44.8205 56.4941 44.7483 56.438C44.6761 56.3818 44.6192 56.2916 44.5869 56.1822C44.5546 56.0728 44.5488 55.9507 44.5705 55.8359L45.9567 49.5166C45.9976 49.3575 46.0113 49.1864 45.9967 49.018C45.9821 48.8495 45.9396 48.6887 45.8729 48.5493C45.8061 48.41 45.7172 48.2963 45.6136 48.2179C45.51 48.1395 45.3948 48.0989 45.2781 48.0995H40.2244Z" stroke="#1F2937" stroke-width="2" stroke-linecap="round" stroke-linejoin="round"/>
</g>
<defs>
<filter id="filter0_d_2231_5313" x="0" y="0" width="92" height="92" filterUnits="userSpaceOnUse" color-interpolation-filters="sRGB">
<feFlood flood-opacity="0" result="BackgroundImageFix"/>
<feColorMatrix in="SourceAlpha" type="matrix" values="0 0 0 0 0 0 0 0 0 0 0 0 0 0 0 0 0 0 127 0" result="hardAlpha"/>
<feOffset/>
<feGaussianBlur stdDeviation="15"/>
<feComposite in2="hardAlpha" operator="out"/>
<feColorMatrix type="matrix" values="0 0 0 0 0.341176 0 0 0 0 0.341176 0 0 0 0 0.337255 0 0 0 0.08 0"/>
<feBlend mode="normal" in2="BackgroundImageFix" result="effect1_dropShadow_2231_5313"/>
<feBlend mode="normal" in="SourceGraphic" in2="effect1_dropShadow_2231_5313" result="shape"/>
</filter>
</defs>
</svg>
