<svg width="1920" height="1570" viewBox="0 0 1920 1570" fill="none" xmlns="http://www.w3.org/2000/svg">
<path d="M125.917 91.8249L66.7534 48.6797L-1.47223e-05 0V78.5708M66.7534 48.6797L66.7534 1519.19M125.917 1475.94L66.7534 1519.19L-1.47223e-05 1568V1488.86M125.917 1475.94L125.917 91.8249M125.917 1475.94L178.555 1437.45M225.688 164.582L178.555 130.211L125.917 91.8249M178.555 130.211L178.555 1437.45M306.537 1343.88L269.381 1371.04L225.688 1402.99L178.555 1437.45M225.688 164.582L225.688 1402.99M306.537 223.541L269.381 196.445L225.688 164.582M269.381 1371.04L269.381 196.445M306.537 223.541L306.537 1343.88M373.28 272.213L341.856 249.298L306.537 223.541M306.537 1343.88L341.856 1318.05M341.856 1318.05L341.856 249.298M402.523 1273.7L373.28 1295.08L341.856 1318.05M373.28 272.213L373.28 1295.08M373.28 272.213L402.523 293.539M402.523 1273.7L402.523 293.539M402.523 1273.7L429.358 1254.08M402.523 293.539L429.358 313.108M429.358 313.108L429.358 1254.08M477.033 347.875L454.128 331.172L429.358 313.108M498.509 1203.52L477.033 1219.22L454.128 1235.97L429.358 1254.08M454.128 1235.97L454.128 331.172M477.033 347.875L477.033 1219.22M518.119 377.837L498.509 363.536L477.033 347.875M498.509 1203.52L498.509 363.536M536.924 1175.43L518.119 1189.18L498.509 1203.52M518.119 377.837V1189.18M570.757 416.223L554.587 404.431L536.924 391.55L518.119 377.837M536.924 1175.43L536.924 391.55M536.924 1175.43L554.587 1162.52M554.587 404.431V1162.52M600 1060.42V1095.15L600 1129.31L585.378 1140L570.757 1150.69L554.587 1162.52M570.757 1150.69L570.757 416.223M570.757 416.223L585.378 426.886M585.378 426.886L600 437.548V472.279M585.378 426.886L585.378 1140M600 1095.15L-1.47223e-05 1488.86M-1.47223e-05 1488.86V1410.57M-1.47223e-05 1410.57L600 1060.42M-1.47223e-05 1410.57V1332M600 1060.42V1025.69M600 1025.69L-1.47223e-05 1332M600 1025.69V991.245M-1.47223e-05 1332V1254M-1.47223e-05 1254L600 991.245M-1.47223e-05 1254V1175.43M600 991.245V956.799M600 956.799L-1.47223e-05 1175.43M600 956.799V922.068M-1.47223e-05 1175.43V1097.14M-1.47223e-05 1097.14L600 922.068M-1.47223e-05 1097.14V1018.86M600 922.068V887.622M600 887.622L-1.47223e-05 1018.86M600 887.622V852.892M-1.47223e-05 1018.86V940.288M-1.47223e-05 940.288L600 852.892M-1.47223e-05 940.288V862.001M600 852.892V818.446M600 818.446L-1.47223e-05 862.001M600 818.446V783.715M-1.47223e-05 862.001V783.715M-1.47223e-05 783.715H600M-1.47223e-05 783.715V705.429M600 783.715V749.269M600 749.269L-1.47223e-05 705.429M600 749.269V714.824M-1.47223e-05 705.429L-1.47223e-05 627.143M-1.47223e-05 627.143L600 714.824M-1.47223e-05 627.143V548.857M600 714.824L600 680.093M600 680.093L-1.47223e-05 548.857M600 680.093V645.647M-1.47223e-05 548.857V470.571M-1.47223e-05 470.571L600 645.647M-1.47223e-05 470.571V392.285M600 645.647V610.632M600 610.632L-1.47223e-05 392.285M600 610.632V576.471M-1.47223e-05 392.285V313.999M-1.47223e-05 313.999L600 576.471M-1.47223e-05 313.999V235.428M600 576.471V542.025M600 542.025L-1.47223e-05 235.428M600 542.025V507.009M-1.47223e-05 235.428V157.142M-1.47223e-05 157.142L600 507.009M-1.47223e-05 157.142V78.5708M600 507.009V472.279M600 472.279L-1.47223e-05 78.5708" stroke="url(#paint0_linear_2213_18236)" stroke-width="2"/>
<path d="M1794.08 91.8249L1853.25 48.6797L1920 0V78.5708M1853.25 48.6797V1519.19M1794.08 1475.94L1853.25 1519.19L1920 1568V1488.86M1794.08 1475.94V91.8249M1794.08 1475.94L1741.44 1437.45M1694.31 164.582L1741.44 130.211L1794.08 91.8249M1741.44 130.211V1437.45M1613.46 1343.88L1650.62 1371.04L1694.31 1402.99L1741.44 1437.45M1694.31 164.582L1694.31 1402.99M1613.46 223.541L1650.62 196.445L1694.31 164.582M1650.62 1371.04L1650.62 196.445M1613.46 223.541L1613.46 1343.88M1546.72 272.213L1578.14 249.298L1613.46 223.541M1613.46 1343.88L1578.14 1318.05M1578.14 1318.05L1578.14 249.298M1517.48 1273.7L1546.72 1295.08L1578.14 1318.05M1546.72 272.213V1295.08M1546.72 272.213L1517.48 293.539M1517.48 1273.7L1517.48 293.539M1517.48 1273.7L1490.64 1254.08M1517.48 293.539L1490.64 313.108M1490.64 313.108L1490.64 1254.08M1442.97 347.875L1465.87 331.172L1490.64 313.108M1421.49 1203.52L1442.97 1219.22L1465.87 1235.97L1490.64 1254.08M1465.87 1235.97V331.172M1442.97 347.875V1219.22M1401.88 377.837L1421.49 363.536L1442.97 347.875M1421.49 1203.52L1421.49 363.536M1383.08 1175.43L1401.88 1189.18L1421.49 1203.52M1401.88 377.837V1189.18M1349.24 416.223L1365.41 404.431L1383.08 391.55L1401.88 377.837M1383.08 1175.43V391.55M1383.08 1175.43L1365.41 1162.52M1365.41 404.431V1162.52M1320 1060.42V1095.15V1129.31L1334.62 1140L1349.24 1150.69L1365.41 1162.52M1349.24 1150.69V416.223M1349.24 416.223L1334.62 426.886M1334.62 426.886L1320 437.548V472.279M1334.62 426.886V1140M1320 1095.15L1920 1488.86M1920 1488.86V1410.57M1920 1410.57L1320 1060.42M1920 1410.57V1332M1320 1060.42V1025.69M1320 1025.69L1920 1332M1320 1025.69V991.245M1920 1332V1254M1920 1254L1320 991.245M1920 1254V1175.43M1320 991.245V956.799M1320 956.799L1920 1175.43M1320 956.799V922.068M1920 1175.43V1097.14M1920 1097.14L1320 922.068M1920 1097.14V1018.86M1320 922.068V887.622M1320 887.622L1920 1018.86M1320 887.622V852.892M1920 1018.86V940.288M1920 940.288L1320 852.892M1920 940.288V862.001M1320 852.892V818.446M1320 818.446L1920 862.001M1320 818.446V783.715M1920 862.001V783.715M1920 783.715H1320M1920 783.715V705.429M1320 783.715V749.269M1320 749.269L1920 705.429M1320 749.269V714.824M1920 705.429L1920 627.143M1920 627.143L1320 714.824M1920 627.143V548.857M1320 714.824V680.093M1320 680.093L1920 548.857M1320 680.093V645.647M1920 548.857V470.571M1920 470.571L1320 645.647M1920 470.571V392.285M1320 645.647V610.632M1320 610.632L1920 392.285M1320 610.632V576.471M1920 392.285V313.999M1920 313.999L1320 576.471M1920 313.999V235.428M1320 576.471V542.025M1320 542.025L1920 235.428M1320 542.025V507.009M1920 235.428V157.142M1920 157.142L1320 507.009M1920 157.142V78.5708M1320 507.009V472.279M1320 472.279L1920 78.5708" stroke="url(#paint1_linear_2213_18236)" stroke-width="2"/>
<defs>
<linearGradient id="paint0_linear_2213_18236" x1="600" y1="784" x2="-2.52724e-05" y2="784" gradientUnits="userSpaceOnUse">
<stop stop-color="#F4E98B" stop-opacity="0"/>
<stop offset="1" stop-color="#F4E98B" stop-opacity="0.8"/>
</linearGradient>
<linearGradient id="paint1_linear_2213_18236" x1="1320" y1="784" x2="1920" y2="784" gradientUnits="userSpaceOnUse">
<stop stop-color="#F4E98B" stop-opacity="0"/>
<stop offset="1" stop-color="#F4E98B" stop-opacity="0.8"/>
</linearGradient>
</defs>
</svg>
