<svg width="1920" height="1129" viewBox="0 0 1920 1129" fill="none" xmlns="http://www.w3.org/2000/svg">
<path d="M66.7534 -390.32L-1.47223e-05 -439V-360.429M66.7534 -390.32L66.7534 1080.19M66.7534 -390.32L125.917 -347.175M66.7534 1080.19L-1.47223e-05 1129V1049.86M66.7534 1080.19L125.917 1036.94M125.917 1036.94L125.917 -347.175M125.917 1036.94L178.555 998.45M125.917 -347.175L178.555 -308.789M178.555 -308.789L178.555 998.45M178.555 -308.789L225.688 -274.418M178.555 998.45L225.688 963.989M225.688 -274.418L225.688 963.989M225.688 -274.418L269.381 -242.555M225.688 963.989L269.381 932.044M269.381 932.044L269.381 -242.555M269.381 932.044L306.537 904.877M269.381 -242.555L306.537 -215.459M306.537 -215.459L306.537 904.877M306.537 -215.459L341.856 -189.702M306.537 904.877L341.856 879.054M341.856 879.054L341.856 -189.702M341.856 879.054L373.28 856.078M341.856 -189.702L373.28 -166.787M373.28 -166.787L373.28 856.078M373.28 -166.787L402.523 -145.461M373.28 856.078L402.523 834.697M402.523 834.697L402.523 -145.461M402.523 834.697L429.358 815.077M402.523 -145.461L429.358 -125.892M429.358 -125.892L429.358 815.077M429.358 -125.892L454.128 -107.828M429.358 815.077L454.128 796.966M454.128 796.966L454.128 -107.828M454.128 796.966L477.033 780.22M454.128 -107.828L477.033 -91.1249M477.033 -91.1249L477.033 780.22M477.033 -91.1249L498.509 -75.4637M477.033 780.22L498.509 764.517M498.509 764.517L498.509 -75.4637M498.509 764.517L518.119 750.18M498.509 -75.4637L518.119 -61.163M518.119 -61.163V750.18M518.119 -61.163L536.924 -47.4496M518.119 750.18L536.924 736.431M536.924 736.431L536.924 -47.4496M536.924 736.431L554.587 723.516M536.924 -47.4496L554.587 -34.5689M554.587 -34.5689V723.516M554.587 -34.5689L570.757 -22.7772M554.587 723.516L570.757 711.694M570.757 711.694L570.757 -22.7772M570.757 711.694L585.378 701.003M570.757 -22.7772L585.378 -12.1145M585.378 -12.1145L600 -1.45175V33.2788M585.378 -12.1145L585.378 701.003M585.378 701.003L600 690.313L600 656.152M600 656.152L-1.47223e-05 1049.86M600 656.152V621.421M-1.47223e-05 1049.86V971.574M-1.47223e-05 971.574L600 621.421M-1.47223e-05 971.574V893.003M600 621.421V586.691M600 586.691L-1.47223e-05 893.003M600 586.691V552.245M-1.47223e-05 893.003V815.001M-1.47223e-05 815.001L600 552.245M-1.47223e-05 815.001V736.431M600 552.245V517.799M600 517.799L-1.47223e-05 736.431M600 517.799V483.068M-1.47223e-05 736.431V658.144M-1.47223e-05 658.144L600 483.068M-1.47223e-05 658.144V579.858M600 483.068V448.622M600 448.622L-1.47223e-05 579.858M600 448.622V413.892M-1.47223e-05 579.858V501.288M-1.47223e-05 501.288L600 413.892M-1.47223e-05 501.288V423.001M600 413.892V379.446M600 379.446L-1.47223e-05 423.001M600 379.446V344.715M-1.47223e-05 423.001V344.715M-1.47223e-05 344.715H600M-1.47223e-05 344.715V266.429M600 344.715V310.269M600 310.269L-1.47223e-05 266.429M600 310.269V275.824M-1.47223e-05 266.429L-1.47223e-05 188.143M-1.47223e-05 188.143L600 275.824M-1.47223e-05 188.143V109.857M600 275.824L600 241.093M600 241.093L-1.47223e-05 109.857M600 241.093V206.647M-1.47223e-05 109.857V31.5708M-1.47223e-05 31.5708L600 206.647M-1.47223e-05 31.5708V-46.7154M600 206.647V171.632M600 171.632L-1.47223e-05 -46.7154M600 171.632V137.471M-1.47223e-05 -46.7154V-125.001M-1.47223e-05 -125.001L600 137.471M-1.47223e-05 -125.001V-203.572M600 137.471V103.025M600 103.025L-1.47223e-05 -203.572M600 103.025V68.0094M-1.47223e-05 -203.572V-281.858M-1.47223e-05 -281.858L600 68.0094M-1.47223e-05 -281.858V-360.429M600 68.0094V33.2788M600 33.2788L-1.47223e-05 -360.429" stroke="url(#paint0_linear_2231_5216)" stroke-width="2"/>
<path d="M1853.25 -390.32L1920 -439V-360.429M1853.25 -390.32V1080.19M1853.25 -390.32L1794.08 -347.175M1853.25 1080.19L1920 1129V1049.86M1853.25 1080.19L1794.08 1036.94M1794.08 1036.94V-347.175M1794.08 1036.94L1741.44 998.45M1794.08 -347.175L1741.44 -308.789M1741.44 -308.789V998.45M1741.44 -308.789L1694.31 -274.418M1741.44 998.45L1694.31 963.989M1694.31 -274.418L1694.31 963.989M1694.31 -274.418L1650.62 -242.555M1694.31 963.989L1650.62 932.044M1650.62 932.044L1650.62 -242.555M1650.62 932.044L1613.46 904.877M1650.62 -242.555L1613.46 -215.459M1613.46 -215.459L1613.46 904.877M1613.46 -215.459L1578.14 -189.702M1613.46 904.877L1578.14 879.054M1578.14 879.054L1578.14 -189.702M1578.14 879.054L1546.72 856.078M1578.14 -189.702L1546.72 -166.787M1546.72 -166.787V856.078M1546.72 -166.787L1517.48 -145.461M1546.72 856.078L1517.48 834.697M1517.48 834.697L1517.48 -145.461M1517.48 834.697L1490.64 815.077M1517.48 -145.461L1490.64 -125.892M1490.64 -125.892L1490.64 815.077M1490.64 -125.892L1465.87 -107.828M1490.64 815.077L1465.87 796.966M1465.87 796.966V-107.828M1465.87 796.966L1442.97 780.22M1465.87 -107.828L1442.97 -91.1249M1442.97 -91.1249V780.22M1442.97 -91.1249L1421.49 -75.4637M1442.97 780.22L1421.49 764.517M1421.49 764.517L1421.49 -75.4637M1421.49 764.517L1401.88 750.18M1421.49 -75.4637L1401.88 -61.163M1401.88 -61.163V750.18M1401.88 -61.163L1383.08 -47.4496M1401.88 750.18L1383.08 736.431M1383.08 736.431V-47.4496M1383.08 736.431L1365.41 723.516M1383.08 -47.4496L1365.41 -34.5689M1365.41 -34.5689V723.516M1365.41 -34.5689L1349.24 -22.7772M1365.41 723.516L1349.24 711.694M1349.24 711.694V-22.7772M1349.24 711.694L1334.62 701.003M1349.24 -22.7772L1334.62 -12.1145M1334.62 -12.1145L1320 -1.45175V33.2788M1334.62 -12.1145V701.003M1334.62 701.003L1320 690.313V656.152M1320 656.152L1920 1049.86M1320 656.152V621.421M1920 1049.86V971.574M1920 971.574L1320 621.421M1920 971.574V893.003M1320 621.421V586.691M1320 586.691L1920 893.003M1320 586.691V552.245M1920 893.003V815.001M1920 815.001L1320 552.245M1920 815.001V736.431M1320 552.245V517.799M1320 517.799L1920 736.431M1320 517.799V483.068M1920 736.431V658.144M1920 658.144L1320 483.068M1920 658.144V579.858M1320 483.068V448.622M1320 448.622L1920 579.858M1320 448.622V413.892M1920 579.858V501.288M1920 501.288L1320 413.892M1920 501.288V423.001M1320 413.892V379.446M1320 379.446L1920 423.001M1320 379.446V344.715M1920 423.001V344.715M1920 344.715H1320M1920 344.715V266.429M1320 344.715V310.269M1320 310.269L1920 266.429M1320 310.269V275.824M1920 266.429L1920 188.143M1920 188.143L1320 275.824M1920 188.143V109.857M1320 275.824V241.093M1320 241.093L1920 109.857M1320 241.093V206.647M1920 109.857V31.5708M1920 31.5708L1320 206.647M1920 31.5708V-46.7154M1320 206.647V171.632M1320 171.632L1920 -46.7154M1320 171.632V137.471M1920 -46.7154V-125.001M1920 -125.001L1320 137.471M1920 -125.001V-203.572M1320 137.471V103.025M1320 103.025L1920 -203.572M1320 103.025V68.0094M1920 -203.572V-281.858M1920 -281.858L1320 68.0094M1920 -281.858V-360.429M1320 68.0094V33.2788M1320 33.2788L1920 -360.429" stroke="url(#paint1_linear_2231_5216)" stroke-width="2"/>
<defs>
<linearGradient id="paint0_linear_2231_5216" x1="600" y1="345" x2="-2.52724e-05" y2="345" gradientUnits="userSpaceOnUse">
<stop stop-color="#F4E98B" stop-opacity="0"/>
<stop offset="1" stop-color="#F4E98B" stop-opacity="0.8"/>
</linearGradient>
<linearGradient id="paint1_linear_2231_5216" x1="1320" y1="345" x2="1920" y2="345" gradientUnits="userSpaceOnUse">
<stop stop-color="#F4E98B" stop-opacity="0"/>
<stop offset="1" stop-color="#F4E98B" stop-opacity="0.8"/>
</linearGradient>
</defs>
</svg>
